<svg aria-hidden="true" style="position: absolute; width: 0; height: 0; overflow: hidden;" version="1.1" xmlns="http://www.w3.org/2000/svg" xmlns:xlink="http://www.w3.org/1999/xlink">
<defs>
<symbol id="icon-equal" viewBox="0 0 32 32">
<path d="M8 18h16v4h-16v-4zM8 10v4h16v-4h-16z"></path>
</symbol>
<symbol id="icon-spinner11" viewBox="0 0 32 32">
<path d="M32 12h-12l4.485-4.485c-2.267-2.266-5.28-3.515-8.485-3.515s-6.219 1.248-8.485 3.515c-2.266 2.267-3.515 5.28-3.515 8.485s1.248 6.219 3.515 8.485c2.267 2.266 5.28 3.515 8.485 3.515s6.219-1.248 8.485-3.515c0.189-0.189 0.371-0.384 0.546-0.583l3.010 2.634c-2.933 3.349-7.239 5.464-12.041 5.464-8.837 0-16-7.163-16-16s7.163-16 16-16c4.418 0 8.418 1.791 11.313 4.687l4.687-4.687v12z"></path>
</symbol>
<symbol id="icon-sun" viewBox="0 0 32 32">
<path d="M16 26c1.105 0 2 0.895 2 2v2c0 1.105-0.895 2-2 2s-2-0.895-2-2v-2c0-1.105 0.895-2 2-2zM16 6c-1.105 0-2-0.895-2-2v-2c0-1.105 0.895-2 2-2s2 0.895 2 2v2c0 1.105-0.895 2-2 2zM30 14c1.105 0 2 0.895 2 2s-0.895 2-2 2h-2c-1.105 0-2-0.895-2-2s0.895-2 2-2h2zM6 16c0 1.105-0.895 2-2 2h-2c-1.105 0-2-0.895-2-2s0.895-2 2-2h2c1.105 0 2 0.895 2 2zM25.899 23.071l1.414 1.414c0.781 0.781 0.781 2.047 0 2.828s-2.047 0.781-2.828 0l-1.414-1.414c-0.781-0.781-0.781-2.047 0-2.828s2.047-0.781 2.828 0zM6.101 8.929l-1.414-1.414c-0.781-0.781-0.781-2.047 0-2.828s2.047-0.781 2.828 0l1.414 1.414c0.781 0.781 0.781 2.047 0 2.828s-2.047 0.781-2.828 0zM25.899 8.929c-0.781 0.781-2.047 0.781-2.828 0s-0.781-2.047 0-2.828l1.414-1.414c0.781-0.781 2.047-0.781 2.828 0s0.781 2.047 0 2.828l-1.414 1.414zM6.101 23.071c0.781-0.781 2.047-0.781 2.828 0s0.781 2.047 0 2.828l-1.414 1.414c-0.781 0.781-2.047 0.781-2.828 0s-0.781-2.047 0-2.828l1.414-1.414z"></path>
<path d="M16 8c-4.418 0-8 3.582-8 8s3.582 8 8 8c4.418 0 8-3.582 8-8s-3.582-8-8-8zM16 21c-2.761 0-5-2.239-5-5s2.239-5 5-5 5 2.239 5 5-2.239 5-5 5z"></path>
</symbol>
<symbol id="icon-dot-single" viewBox="0 0 20 20">
<path d="M7.8 10c0 1.215 0.986 2.2 2.201 2.2s2.199-0.986 2.199-2.2c0-1.215-0.984-2.199-2.199-2.199s-2.201 0.984-2.201 2.199z"></path>
</symbol>
<symbol id="icon-divide" viewBox="0 0 24 24">
<path d="M14.25 6c0 1.243-1.007 2.25-2.25 2.25s-2.25-1.007-2.25-2.25c0-1.243 1.007-2.25 2.25-2.25s2.25 1.007 2.25 2.25z"></path>
<path d="M14.25 18c0 1.243-1.007 2.25-2.25 2.25s-2.25-1.007-2.25-2.25c0-1.243 1.007-2.25 2.25-2.25s2.25 1.007 2.25 2.25z"></path>
<path d="M18 10h-12c-1.104 0-2 0.896-2 2s0.896 2 2 2h12c1.104 0 2-0.896 2-2s-0.896-2-2-2z"></path>
</symbol>
<symbol id="icon-x" viewBox="0 0 24 24">
<path d="M5.293 6.707l5.293 5.293-5.293 5.293c-0.391 0.391-0.391 1.024 0 1.414s1.024 0.391 1.414 0l5.293-5.293 5.293 5.293c0.391 0.391 1.024 0.391 1.414 0s0.391-1.024 0-1.414l-5.293-5.293 5.293-5.293c0.391-0.391 0.391-1.024 0-1.414s-1.024-0.391-1.414 0l-5.293 5.293-5.293-5.293c-0.391-0.391-1.024-0.391-1.414 0s-0.391 1.024 0 1.414z"></path>
</symbol>
<symbol id="icon-minus" viewBox="0 0 24 24">
<path d="M5 13h14c0.552 0 1-0.448 1-1s-0.448-1-1-1h-14c-0.552 0-1 0.448-1 1s0.448 1 1 1z"></path>
</symbol>
<symbol id="icon-plus" viewBox="0 0 24 24">
<path d="M5 13h6v6c0 0.552 0.448 1 1 1s1-0.448 1-1v-6h6c0.552 0 1-0.448 1-1s-0.448-1-1-1h-6v-6c0-0.552-0.448-1-1-1s-1 0.448-1 1v6h-6c-0.552 0-1 0.448-1 1s0.448 1 1 1z"></path>
</symbol>
<symbol id="icon-percent" viewBox="0 0 24 24">
<path d="M18.293 4.293l-14 14c-0.391 0.391-0.391 1.024 0 1.414s1.024 0.391 1.414 0l14-14c0.391-0.391 0.391-1.024 0-1.414s-1.024-0.391-1.414 0zM10 6.5c0-0.966-0.393-1.843-1.025-2.475s-1.509-1.025-2.475-1.025-1.843 0.393-2.475 1.025-1.025 1.509-1.025 2.475 0.393 1.843 1.025 2.475 1.509 1.025 2.475 1.025 1.843-0.393 2.475-1.025 1.025-1.509 1.025-2.475zM8 6.5c0 0.414-0.167 0.788-0.439 1.061s-0.647 0.439-1.061 0.439-0.788-0.167-1.061-0.439-0.439-0.647-0.439-1.061 0.167-0.788 0.439-1.061 0.647-0.439 1.061-0.439 0.788 0.167 1.061 0.439 0.439 0.647 0.439 1.061zM21 17.5c0-0.966-0.393-1.843-1.025-2.475s-1.509-1.025-2.475-1.025-1.843 0.393-2.475 1.025-1.025 1.509-1.025 2.475 0.393 1.843 1.025 2.475 1.509 1.025 2.475 1.025 1.843-0.393 2.475-1.025 1.025-1.509 1.025-2.475zM19 17.5c0 0.414-0.167 0.788-0.439 1.061s-0.647 0.439-1.061 0.439-0.788-0.167-1.061-0.439-0.439-0.647-0.439-1.061 0.167-0.788 0.439-1.061 0.647-0.439 1.061-0.439 0.788 0.167 1.061 0.439 0.439 0.647 0.439 1.061z"></path>
</symbol>
<symbol id="icon-wifi" viewBox="0 0 24 24">
<path d="M5.016 12.984q2.906-2.859 7.008-2.859t6.961 2.859l-1.969 2.016q-0.844-0.844-2.32-1.453t-2.695-0.609-2.695 0.609-2.32 1.453zM9 17.016q1.266-1.266 3-1.266t3 1.266l-3 3zM0.984 9q4.594-4.547 11.039-4.547t10.992 4.547l-2.016 2.016q-3.75-3.703-9-3.703t-9 3.703z"></path>
</symbol>
<symbol id="icon-moon-o" viewBox="0 0 23 28">
<path d="M19.719 20.359c-0.562 0.094-1.141 0.141-1.719 0.141-5.797 0-10.5-4.703-10.5-10.5 0-1.984 0.578-3.922 1.625-5.578-4.156 1.234-7.125 5.047-7.125 9.578 0 5.516 4.484 10 10 10 3.016 0 5.844-1.375 7.719-3.641zM22.891 19.031c-1.953 4.234-6.234 6.969-10.891 6.969-6.609 0-12-5.391-12-12 0-6.484 5.078-11.75 11.547-11.984 0.438-0.016 0.797 0.234 0.953 0.609 0.172 0.391 0.063 0.844-0.234 1.125-1.781 1.625-2.766 3.844-2.766 6.25 0 4.688 3.813 8.5 8.5 8.5 1.234 0 2.422-0.266 3.563-0.797 0.391-0.172 0.828-0.094 1.125 0.203s0.375 0.75 0.203 1.125z"></path>
</symbol>
<symbol id="icon-signal" viewBox="0 0 28 28">
<path d="M4 22.5v3c0 0.281-0.219 0.5-0.5 0.5h-3c-0.281 0-0.5-0.219-0.5-0.5v-3c0-0.281 0.219-0.5 0.5-0.5h3c0.281 0 0.5 0.219 0.5 0.5zM10 20.5v5c0 0.281-0.219 0.5-0.5 0.5h-3c-0.281 0-0.5-0.219-0.5-0.5v-5c0-0.281 0.219-0.5 0.5-0.5h3c0.281 0 0.5 0.219 0.5 0.5zM16 16.5v9c0 0.281-0.219 0.5-0.5 0.5h-3c-0.281 0-0.5-0.219-0.5-0.5v-9c0-0.281 0.219-0.5 0.5-0.5h3c0.281 0 0.5 0.219 0.5 0.5zM22 10.5v15c0 0.281-0.219 0.5-0.5 0.5h-3c-0.281 0-0.5-0.219-0.5-0.5v-15c0-0.281 0.219-0.5 0.5-0.5h3c0.281 0 0.5 0.219 0.5 0.5zM28 2.5v23c0 0.281-0.219 0.5-0.5 0.5h-3c-0.281 0-0.5-0.219-0.5-0.5v-23c0-0.281 0.219-0.5 0.5-0.5h3c0.281 0 0.5 0.219 0.5 0.5z"></path>
</symbol>
<symbol id="icon-battery" viewBox="0 0 36 28">
<path d="M30 8v12h-26v-12h26zM32 17h2v-6h-2v-4.5c0-0.281-0.219-0.5-0.5-0.5h-29c-0.281 0-0.5 0.219-0.5 0.5v15c0 0.281 0.219 0.5 0.5 0.5h29c0.281 0 0.5-0.219 0.5-0.5v-4.5zM36 11v6c0 1.109-0.891 2-2 2v2.5c0 1.375-1.125 2.5-2.5 2.5h-29c-1.375 0-2.5-1.125-2.5-2.5v-15c0-1.375 1.125-2.5 2.5-2.5h29c1.375 0 2.5 1.125 2.5 2.5v2.5c1.109 0 2 0.891 2 2z"></path>
</symbol>
</defs>
</svg>
